<svg xmlns="http://www.w3.org/2000/svg" width="960" height="240" viewBox="0 0 960 240" role="img" aria-labelledby="title desc">
  <title id="title">IceMind logo</title>
  <desc id="desc">IceMind wordmark with a cold blue geometric monogram</desc>
  <defs>
    <linearGradient id="ice" x1="0" y1="0" x2="1" y2="1">
      <stop offset="0%" stop-color="#b8ecff"/>
      <stop offset="55%" stop-color="#58b8ff"/>
      <stop offset="100%" stop-color="#1f4f95"/>
    </linearGradient>
    <linearGradient id="glow" x1="0" y1="0" x2="1" y2="0">
      <stop offset="0%" stop-color="#f0fdff" stop-opacity="0.95"/>
      <stop offset="100%" stop-color="#8ad6ff" stop-opacity="0.2"/>
    </linearGradient>
  </defs>
  <rect width="960" height="240" rx="44" fill="#ffffff"/>
  <rect x="16" y="16" width="928" height="208" rx="32" fill="#f5fbff" stroke="#d8eaf6"/>
  <g transform="translate(44,20)">
    <rect width="200" height="200" rx="44" fill="#091a2f"/>
    <rect x="10" y="10" width="180" height="180" rx="36" fill="#0d2340" stroke="#9fdfff" stroke-opacity="0.24" stroke-width="2"/>
    <path d="M48 42h22v116H48z" fill="url(#ice)"/>
    <path d="M86 42h22v116H86z" fill="url(#ice)"/>
    <path d="M70 42h16v116H70z" fill="url(#glow)" opacity="0.9"/>
    <path d="M116 158V42h24l38 47-38 47h28v22z" fill="url(#ice)"/>
    <circle cx="158" cy="44" r="8" fill="#e6fbff" opacity="0.9"/>
    <circle cx="38" cy="62" r="5" fill="#e6fbff" opacity="0.4"/>
  </g>
  <g transform="translate(286,72)">
    <text x="0" y="44" font-family="Google Sans, Inter, Arial, sans-serif" font-size="68" font-weight="800" fill="#17385f" letter-spacing="1.4">ICEMIND</text>
    <text x="2" y="92" font-family="Google Sans, Inter, Arial, sans-serif" font-size="26" font-weight="600" fill="#607286">Adaptive cognition for embodied intelligence</text>
  </g>
</svg>
